<svg xmlns="http://www.w3.org/2000/svg" width="177.75000000000003" height="35" viewBox="0 0 177.75000000000003 35"><rect class="svg__rect" x="0" y="0" width="134.15" height="35" fill="#66D615"/><rect class="svg__rect" x="132.15" y="0" width="45.60000000000002" height="35" fill="#D91B19"/><path class="svg__text" d="M15.70 22L14.22 22L14.22 13.47L17.22 13.47Q18.69 13.47 19.50 14.13Q20.30 14.79 20.30 16.05L20.30 16.05Q20.30 16.90 19.89 17.48Q19.47 18.06 18.73 18.37L18.73 18.37L20.65 21.92L20.65 22L19.06 22L17.35 18.71L15.70 18.71L15.70 22ZM15.70 14.66L15.70 17.52L17.22 17.52Q17.97 17.52 18.39 17.15Q18.82 16.77 18.82 16.11L18.82 16.11Q18.82 15.43 18.43 15.05Q18.04 14.68 17.26 14.66L17.26 14.66L15.70 14.66ZM25.47 22L23.93 22L27.15 13.47L28.48 13.47L31.71 22L30.17 22L29.47 20.01L26.16 20.01L25.47 22ZM27.82 15.28L26.58 18.82L29.05 18.82L27.82 15.28ZM35.23 19.42L35.23 19.42L36.72 19.42Q36.72 20.15 37.20 20.55Q37.68 20.95 38.57 20.95L38.57 20.95Q39.35 20.95 39.74 20.63Q40.13 20.32 40.13 19.80L40.13 19.80Q40.13 19.24 39.73 18.94Q39.34 18.63 38.31 18.32Q37.27 18.01 36.66 17.63L36.66 17.63Q35.50 16.90 35.50 15.72L35.50 15.72Q35.50 14.69 36.34 14.02Q37.18 13.35 38.52 13.35L38.52 13.35Q39.41 13.35 40.11 13.68Q40.81 14.01 41.21 14.61Q41.60 15.22 41.60 15.96L41.60 15.96L40.13 15.96Q40.13 15.29 39.71 14.91Q39.29 14.54 38.51 14.54L38.51 14.54Q37.78 14.54 37.38 14.85Q36.98 15.16 36.98 15.71L36.98 15.71Q36.98 16.18 37.41 16.50Q37.85 16.81 38.84 17.10Q39.84 17.40 40.44 17.78Q41.05 18.16 41.33 18.65Q41.61 19.13 41.61 19.79L41.61 19.79Q41.61 20.86 40.79 21.49Q39.98 22.12 38.57 22.12L38.57 22.12Q37.65 22.12 36.87 21.77Q36.10 21.43 35.67 20.83Q35.23 20.22 35.23 19.42ZM47.38 22L45.90 22L45.90 13.47L49.16 13.47Q50.59 13.47 51.43 14.21Q52.27 14.96 52.27 16.18L52.27 16.18Q52.27 17.44 51.45 18.13Q50.63 18.83 49.14 18.83L49.14 18.83L47.38 18.83L47.38 22ZM47.38 14.66L47.38 17.64L49.16 17.64Q49.95 17.64 50.37 17.27Q50.79 16.90 50.79 16.19L50.79 16.19Q50.79 15.50 50.36 15.09Q49.94 14.68 49.20 14.66L49.20 14.66L47.38 14.66ZM59.67 22L56.56 22L56.56 13.47L59.48 13.47Q60.93 13.47 61.68 14.05Q62.44 14.63 62.44 15.78L62.44 15.78Q62.44 16.36 62.12 16.83Q61.81 17.30 61.20 17.56L61.20 17.56Q61.89 17.75 62.27 18.26Q62.64 18.78 62.64 19.51L62.64 19.51Q62.64 20.71 61.87 21.36Q61.10 22 59.67 22L59.67 22ZM58.04 18.15L58.04 20.82L59.69 20.82Q60.38 20.82 60.78 20.47Q61.17 20.13 61.17 19.51L61.17 19.51Q61.17 18.18 59.81 18.15L59.81 18.15L58.04 18.15ZM58.04 14.66L58.04 17.06L59.49 17.06Q60.18 17.06 60.57 16.75Q60.96 16.43 60.96 15.86L60.96 15.86Q60.96 15.23 60.60 14.95Q60.24 14.66 59.48 14.66L59.48 14.66L58.04 14.66ZM72.69 22L67.12 22L67.12 13.47L72.65 13.47L72.65 14.66L68.60 14.66L68.60 17.02L72.10 17.02L72.10 18.19L68.60 18.19L68.60 20.82L72.69 20.82L72.69 22ZM78.37 22L76.89 22L76.89 13.47L79.89 13.47Q81.37 13.47 82.17 14.13Q82.97 14.79 82.97 16.05L82.97 16.05Q82.97 16.90 82.56 17.48Q82.14 18.06 81.41 18.37L81.41 18.37L83.32 21.92L83.32 22L81.73 22L80.02 18.71L78.37 18.71L78.37 22ZM78.37 14.66L78.37 17.52L79.89 17.52Q80.64 17.52 81.07 17.15Q81.49 16.77 81.49 16.11L81.49 16.11Q81.49 15.43 81.10 15.05Q80.71 14.68 79.94 14.66L79.94 14.66L78.37 14.66ZM88.85 22L87.37 22L87.37 13.47L90.37 13.47Q91.84 13.47 92.64 14.13Q93.45 14.79 93.45 16.05L93.45 16.05Q93.45 16.90 93.03 17.48Q92.62 18.06 91.88 18.37L91.88 18.37L93.80 21.92L93.80 22L92.21 22L90.50 18.71L88.85 18.71L88.85 22ZM88.85 14.66L88.85 17.52L90.37 17.52Q91.12 17.52 91.54 17.15Q91.97 16.77 91.97 16.11L91.97 16.11Q91.97 15.43 91.58 15.05Q91.19 14.68 90.41 14.66L90.41 14.66L88.85 14.66ZM99.88 18.86L97.02 13.47L98.66 13.47L100.63 17.51L102.59 13.47L104.23 13.47L101.37 18.86L101.37 22L99.88 22L99.88 18.86ZM109.63 22L108.14 22L108.14 13.47L111.41 13.47Q112.84 13.47 113.68 14.21Q114.52 14.96 114.52 16.18L114.52 16.18Q114.52 17.44 113.69 18.13Q112.87 18.83 111.39 18.83L111.39 18.83L109.63 18.83L109.63 22ZM109.63 14.66L109.63 17.64L111.41 17.64Q112.20 17.64 112.61 17.27Q113.03 16.90 113.03 16.19L113.03 16.19Q113.03 15.50 112.61 15.09Q112.19 14.68 111.45 14.66L111.45 14.66L109.63 14.66ZM120.37 22L118.89 22L118.89 13.47L120.37 13.47L120.37 22Z" fill="#FFFFFF"/><path class="svg__text" d="M145.45 21.34L145.45 21.34L146.31 19.55Q146.81 19.88 147.42 20.07Q148.04 20.25 148.65 20.25L148.65 20.25Q149.26 20.25 149.62 20.02Q149.98 19.79 149.98 19.37L149.98 19.37Q149.98 18.55 148.69 18.55L148.69 18.55L147.70 18.55L147.70 17.05L149.20 15.44L145.89 15.44L145.89 13.60L151.96 13.60L151.96 15.09L150.22 16.96Q151.26 17.18 151.82 17.82Q152.38 18.46 152.38 19.37L152.38 19.37Q152.38 20.11 151.97 20.75Q151.57 21.39 150.75 21.78Q149.93 22.17 148.72 22.17L148.72 22.17Q147.83 22.17 146.96 21.95Q146.09 21.74 145.45 21.34ZM161.60 22L157.05 22L157.05 13.60L161.36 13.60Q162.96 13.60 163.80 14.19Q164.64 14.79 164.64 15.79L164.64 15.79Q164.64 16.39 164.35 16.87Q164.05 17.34 163.51 17.62L163.51 17.62Q164.23 17.87 164.64 18.41Q165.05 18.94 165.05 19.70L165.05 19.70Q165.05 20.80 164.16 21.40Q163.27 22 161.60 22L161.60 22ZM159.41 18.58L159.41 20.28L161.40 20.28Q162.65 20.28 162.65 19.43L162.65 19.43Q162.65 18.58 161.40 18.58L161.40 18.58L159.41 18.58ZM159.41 15.31L159.41 16.94L161.04 16.94Q162.24 16.94 162.24 16.12L162.24 16.12Q162.24 15.31 161.04 15.31L161.04 15.31L159.41 15.31Z" fill="#FFFFFF" x="145.15"/></svg>