<svg xmlns="http://www.w3.org/2000/svg" width="226.74" height="35" viewBox="0 0 226.74 35"><rect class="svg__rect" x="0" y="0" width="78.21000000000001" height="35" fill="#E22711"/><rect class="svg__rect" x="76.21000000000001" y="0" width="150.53" height="35" fill="#0BEC26"/><path class="svg__text" d="M15.69 22L14.22 22L14.22 13.47L16.14 13.47L18.60 20.01L21.06 13.47L22.97 13.47L22.97 22L21.49 22L21.49 19.19L21.64 15.43L19.12 22L18.06 22L15.55 15.43L15.69 19.19L15.69 22ZM27.47 18.13L27.47 18.13L27.47 17.46Q27.47 15.53 28.39 14.44Q29.32 13.35 30.98 13.35L30.98 13.35Q32.40 13.35 33.24 14.05Q34.07 14.76 34.24 16.08L34.24 16.08L32.79 16.08Q32.55 14.54 31.00 14.54L31.00 14.54Q30.01 14.54 29.49 15.26Q28.97 15.98 28.95 17.37L28.95 17.37L28.95 18.02Q28.95 19.40 29.54 20.17Q30.12 20.93 31.16 20.93L31.16 20.93Q32.29 20.93 32.77 20.42L32.77 20.42L32.77 18.75L31.02 18.75L31.02 17.62L34.25 17.62L34.25 20.89Q33.79 21.50 32.97 21.81Q32.15 22.12 31.10 22.12L31.10 22.12Q30.03 22.12 29.21 21.63Q28.38 21.14 27.93 20.24Q27.48 19.33 27.47 18.13ZM38.55 16.33L38.55 16.33Q38.55 15.48 38.89 14.80Q39.23 14.11 39.85 13.73Q40.48 13.35 41.31 13.35L41.31 13.35Q42.59 13.35 43.35 14.31Q44.11 15.27 44.11 16.88L44.11 16.88L44.11 17.28Q44.11 19.59 43.06 20.80Q42.02 22.02 39.95 22.04L39.95 22.04L39.78 22.04L39.78 20.86L39.99 20.86Q41.25 20.84 41.92 20.25Q42.59 19.66 42.68 18.43L42.68 18.43Q41.96 19.19 41.01 19.19L41.01 19.19Q39.88 19.19 39.21 18.40Q38.55 17.61 38.55 16.33ZM39.95 16.29L39.95 16.29Q39.95 17.09 40.32 17.58Q40.69 18.07 41.31 18.07L41.31 18.07Q41.73 18.07 42.11 17.83Q42.48 17.58 42.69 17.15L42.69 17.15L42.69 16.59Q42.69 15.65 42.30 15.07Q41.91 14.50 41.30 14.50Q40.68 14.50 40.32 15.01Q39.95 15.51 39.95 16.29ZM48.42 18.51L48.42 18.51L48.42 17.03Q48.42 15.19 49.11 14.27Q49.80 13.35 51.21 13.35L51.21 13.35Q52.61 13.35 53.30 14.25Q53.99 15.14 54.01 16.93L54.01 16.93L54.01 18.41Q54.01 20.25 53.32 21.18Q52.63 22.12 51.23 22.12L51.23 22.12Q49.84 22.12 49.14 21.21Q48.44 20.29 48.42 18.51ZM49.84 16.68L49.84 18.61Q49.84 19.81 50.18 20.39Q50.51 20.98 51.23 20.98L51.23 20.98Q51.91 20.98 52.24 20.44Q52.57 19.90 52.58 18.74L52.58 18.74L52.58 16.81Q52.58 15.61 52.26 15.05Q51.93 14.49 51.21 14.49L51.21 14.49Q50.52 14.49 50.19 15.02Q49.86 15.55 49.84 16.68L49.84 16.68ZM58.05 19.42L58.05 19.42L59.53 19.42Q59.53 20.15 60.01 20.55Q60.49 20.95 61.39 20.95L61.39 20.95Q62.16 20.95 62.55 20.63Q62.94 20.32 62.94 19.80L62.94 19.80Q62.94 19.24 62.55 18.94Q62.15 18.63 61.12 18.32Q60.09 18.01 59.48 17.63L59.48 17.63Q58.31 16.90 58.31 15.72L58.31 15.72Q58.31 14.69 59.16 14.02Q60.00 13.35 61.34 13.35L61.34 13.35Q62.23 13.35 62.93 13.68Q63.62 14.01 64.02 14.61Q64.42 15.22 64.42 15.96L64.42 15.96L62.94 15.96Q62.94 15.29 62.52 14.91Q62.11 14.54 61.33 14.54L61.33 14.54Q60.60 14.54 60.20 14.85Q59.80 15.16 59.80 15.71L59.80 15.71Q59.80 16.18 60.23 16.50Q60.66 16.81 61.66 17.10Q62.66 17.40 63.26 17.78Q63.86 18.16 64.14 18.65Q64.43 19.13 64.43 19.79L64.43 19.79Q64.43 20.86 63.61 21.49Q62.79 22.12 61.39 22.12L61.39 22.12Q60.47 22.12 59.69 21.77Q58.91 21.43 58.48 20.83Q58.05 20.22 58.05 19.42Z" fill="#000000"/><path class="svg__text" d="M92.60 22L90.40 22L90.40 13.60L92.35 13.60L95.31 18.45L98.19 13.60L100.14 13.60L100.17 22L97.99 22L97.96 17.55L95.80 21.17L94.75 21.17L92.60 17.67L92.60 22ZM107.71 22L105.33 22L105.33 13.60L107.71 13.60L107.71 22ZM112.45 17.80L112.45 17.80Q112.45 16.54 113.05 15.54Q113.65 14.55 114.70 13.99Q115.75 13.43 117.07 13.43L117.07 13.43Q118.22 13.43 119.15 13.84Q120.07 14.25 120.69 15.02L120.69 15.02L119.17 16.39Q118.36 15.40 117.19 15.40L117.19 15.40Q116.51 15.40 115.97 15.70Q115.44 16 115.14 16.54Q114.85 17.09 114.85 17.80L114.85 17.80Q114.85 18.51 115.14 19.05Q115.44 19.60 115.97 19.90Q116.51 20.20 117.19 20.20L117.19 20.20Q118.36 20.20 119.17 19.22L119.17 19.22L120.69 20.58Q120.08 21.35 119.15 21.76Q118.22 22.17 117.07 22.17L117.07 22.17Q115.75 22.17 114.70 21.61Q113.65 21.05 113.05 20.05Q112.45 19.06 112.45 17.80ZM127.60 22L125.22 22L125.22 13.60L129.06 13.60Q130.21 13.60 131.04 13.98Q131.88 14.35 132.34 15.06Q132.80 15.76 132.80 16.71L132.80 16.71Q132.80 17.62 132.37 18.30Q131.94 18.98 131.15 19.36L131.15 19.36L132.96 22L130.42 22L128.89 19.77L127.60 19.77L127.60 22ZM127.60 15.47L127.60 17.93L128.92 17.93Q129.65 17.93 130.02 17.61Q130.39 17.29 130.39 16.71L130.39 16.71Q130.39 16.12 130.02 15.79Q129.65 15.47 128.92 15.47L128.92 15.47L127.60 15.47ZM137.16 17.80L137.16 17.80Q137.16 16.55 137.76 15.55Q138.36 14.56 139.43 14.00Q140.49 13.43 141.82 13.43L141.82 13.43Q143.15 13.43 144.21 14.00Q145.28 14.56 145.88 15.55Q146.49 16.55 146.49 17.80L146.49 17.80Q146.49 19.05 145.88 20.04Q145.28 21.04 144.22 21.60Q143.16 22.17 141.82 22.17L141.82 22.17Q140.49 22.17 139.43 21.60Q138.36 21.04 137.76 20.04Q137.16 19.05 137.16 17.80ZM139.55 17.80L139.55 17.80Q139.55 18.51 139.85 19.05Q140.16 19.60 140.67 19.90Q141.19 20.20 141.82 20.20L141.82 20.20Q142.46 20.20 142.97 19.90Q143.49 19.60 143.79 19.05Q144.09 18.51 144.09 17.80L144.09 17.80Q144.09 17.09 143.79 16.54Q143.49 16 142.97 15.70Q142.46 15.40 141.82 15.40L141.82 15.40Q141.18 15.40 140.67 15.70Q140.16 16 139.85 16.54Q139.55 17.09 139.55 17.80ZM157.60 21.24L157.60 21.24L158.38 19.49Q158.95 19.86 159.69 20.09Q160.44 20.32 161.16 20.32L161.16 20.32Q162.52 20.32 162.53 19.64L162.53 19.64Q162.53 19.28 162.14 19.11Q161.75 18.93 160.88 18.74L160.88 18.74Q159.93 18.53 159.30 18.30Q158.66 18.06 158.21 17.55Q157.75 17.03 157.75 16.16L157.75 16.16Q157.75 15.39 158.17 14.77Q158.59 14.15 159.42 13.79Q160.26 13.43 161.47 13.43L161.47 13.43Q162.29 13.43 163.10 13.62Q163.90 13.80 164.52 14.17L164.52 14.17L163.79 15.93Q162.59 15.28 161.45 15.28L161.45 15.28Q160.75 15.28 160.42 15.49Q160.10 15.70 160.10 16.04L160.10 16.04Q160.10 16.37 160.48 16.54Q160.87 16.71 161.72 16.89L161.72 16.89Q162.68 17.10 163.31 17.33Q163.94 17.56 164.40 18.07Q164.86 18.58 164.86 19.46L164.86 19.46Q164.86 20.21 164.45 20.83Q164.03 21.44 163.19 21.80Q162.35 22.17 161.14 22.17L161.14 22.17Q160.12 22.17 159.16 21.92Q158.20 21.67 157.60 21.24ZM176.19 22L169.44 22L169.44 13.60L176.03 13.60L176.03 15.44L171.80 15.44L171.80 16.85L175.53 16.85L175.53 18.63L171.80 18.63L171.80 20.17L176.19 20.17L176.19 22ZM183.37 22L180.99 22L180.99 13.60L184.83 13.60Q185.98 13.60 186.81 13.98Q187.65 14.35 188.11 15.06Q188.57 15.76 188.57 16.71L188.57 16.71Q188.57 17.62 188.14 18.30Q187.71 18.98 186.92 19.36L186.92 19.36L188.73 22L186.19 22L184.66 19.77L183.37 19.77L183.37 22ZM183.37 15.47L183.37 17.93L184.69 17.93Q185.42 17.93 185.79 17.61Q186.16 17.29 186.16 16.71L186.16 16.71Q186.16 16.12 185.79 15.79Q185.42 15.47 184.69 15.47L184.69 15.47L183.37 15.47ZM195.94 22L192.35 13.60L194.92 13.60L197.20 19.07L199.52 13.60L201.87 13.60L198.27 22L195.94 22ZM205.60 17.80L205.60 17.80Q205.60 16.55 206.20 15.55Q206.81 14.56 207.87 14.00Q208.93 13.43 210.26 13.43L210.26 13.43Q211.59 13.43 212.66 14.00Q213.72 14.56 214.33 15.55Q214.93 16.55 214.93 17.80L214.93 17.80Q214.93 19.05 214.33 20.04Q213.72 21.04 212.66 21.60Q211.60 22.17 210.26 22.17L210.26 22.17Q208.93 22.17 207.87 21.60Q206.81 21.04 206.20 20.04Q205.60 19.05 205.60 17.80ZM208.00 17.80L208.00 17.80Q208.00 18.51 208.30 19.05Q208.60 19.60 209.11 19.90Q209.63 20.20 210.26 20.20L210.26 20.20Q210.90 20.20 211.42 19.90Q211.93 19.60 212.23 19.05Q212.53 18.51 212.53 17.80L212.53 17.80Q212.53 17.09 212.23 16.54Q211.93 16 211.42 15.70Q210.90 15.40 210.26 15.40L210.26 15.40Q209.62 15.40 209.11 15.70Q208.60 16 208.30 16.54Q208.00 17.09 208.00 17.80Z" fill="#000000" x="89.21000000000001"/></svg>